# xmcd
#
# Track frame offsets:
#	150
#	26297
#	52617
#	87095
#	111132
#	127522
#	152982
#	174590
#	203147
#	227372
#	252135
#	285830
#	306017
#
# Disc length: 4425 seconds
#
# Revision: 0
# Processed by: cddbd v1.5.2PL0 Copyright (c) Steve Scherf et al.
# Submitted via: audiograbber 1.83.01
#
DISCID=8b11470d
DTITLE=Bob Marley and The Wailers - Babylon By Bus
DYEAR=1978
DGENRE=Reggae
TTITLE0=Positive Vibration
TTITLE1=Punky Reggae Party
TTITLE2=Exodus
TTITLE3=Stir It Up
TTITLE4=Rat Race
TTITLE5=Concrete Jungle
TTITLE6=Kinky Reggae
TTITLE7=Lively Up Yourself
TTITLE8=Rebel Music (3 O'Clock Road Block)
TTITLE9=War/No More Trouble
TTITLE10=Is This Love?
TTITLE11=Heathen
TTITLE12=Jamming
EXTD=
EXTT0=
EXTT1=
EXTT2=
EXTT3=
EXTT4=
EXTT5=
EXTT6=
EXTT7=
EXTT8=
EXTT9=
EXTT10=
EXTT11=
EXTT12=
PLAYORDER=
